# xmcd
#
# Track frame offsets:
#	150
#	22766
#	32694
#	64284
#	76243
#	90805
#	101436
#	113291
#	131078
#	142204
#
# Disc length: 2202
#
# Revision: 1
# Processed by: cddbd v1.5.1PL0 Copyright (c) Steve Scherf et al.
# Submitted via: CDex 1.50Beta7
# Normalized: r0:DSETVAR1,TDELIM( - )
#
DISCID=7108980a
DTITLE=Various Artist - The Mississippi Express
DYEAR=2001
DGENRE=Blues
TTITLE0=B.B. King - The Thrill Is Gone
TTITLE1=Bo Diddley - Hey Bo Diddley
TTITLE2=Cannonball Adderley - Cannon Blues
TTITLE3=Savoy Brown - Cold Hearted Woman
TTITLE4=Ray Charles - Blues Is My Middle Name
TTITLE5=Clarence Frogman Henry - Ain't Got No Home
TTITLE6=B.B. King - Payin' The Cost To Be The Boss
TTITLE7=John Mayall - Mama Talk To Your Daughter
TTITLE8=Amos Milbourne - Bad Bad Whiskey
TTITLE9=Roy Milton - Roy's Grove
EXTD=YEAR: 2001
EXTT0=
EXTT1=
EXTT2=
EXTT3=
EXTT4=
EXTT5=
EXTT6=
EXTT7=
EXTT8=
EXTT9=
PLAYORDER=
